<svg width="14" height="14" viewBox="0 0 14 14" fill="none" xmlns="http://www.w3.org/2000/svg">
<path d="M13 11H1C1.30253 7.63113 3.87334 5 6.99999 5C10.1266 5 12.6975 7.63113 13 11Z" fill="#ABABAB" stroke="#ABABAB" stroke-linejoin="round"/>
<path d="M9.5 5.5L11 3" stroke="#ABABAB" stroke-linecap="round" stroke-linejoin="round"/>
<path d="M4.5 5.5L3 3" stroke="#ABABAB" stroke-linecap="round" stroke-linejoin="round"/>
<path d="M4.37484 9.04167C4.697 9.04167 4.95817 8.7805 4.95817 8.45833C4.95817 8.13617 4.697 7.875 4.37484 7.875C4.05267 7.875 3.7915 8.13617 3.7915 8.45833C3.7915 8.7805 4.05267 9.04167 4.37484 9.04167Z" fill="#090922"/>
<path d="M9.62484 9.04167C9.947 9.04167 10.2082 8.7805 10.2082 8.45833C10.2082 8.13617 9.947 7.875 9.62484 7.875C9.30267 7.875 9.0415 8.13617 9.0415 8.45833C9.0415 8.7805 9.30267 9.04167 9.62484 9.04167Z" fill="#090922"/>
</svg>
