<svg width="14" height="14" viewBox="0 0 14 14" fill="none" xmlns="http://www.w3.org/2000/svg">
<path d="M7 3C7.03221 2.28091 7.27848 1.64927 7.73295 1.12127C8.18975 0.590587 8.94485 0.21361 9.97855 0C9.98543 0.0261144 9.99258 0.0522449 10 0.0782755V0.214906C10 0.524721 9.90841 0.879979 9.72761 1.27074C9.53814 1.6491 9.24203 2.0052 8.84874 2.32658C8.48087 2.60977 8.14061 2.79725 7.83987 2.882C7.74053 2.90632 7.60444 2.93027 7.44002 2.95182C7.29379 2.97051 7.14709 2.98656 7 3Z" fill="#ABABAB"/>
<path d="M7.16073 4.77578C6.25521 4.77578 5.62652 4 4.73331 4C3.84013 4 2 4.79532 2 7.54104C2 10.2868 3.63406 12.0559 3.8168 12.2624C3.99956 12.469 4.42224 13 5.07707 13C5.73192 13 6.44882 12.4956 7.16073 12.4956C7.87261 12.4956 8.76865 13 9.35363 13C9.9386 13 10.1792 12.769 10.5773 12.3705C10.9754 11.9721 11.7348 10.7561 12 10.0263C11.5632 9.77441 10.4054 9.09057 10.4054 7.54104C10.4054 6.508 10.7951 5.64983 11.5745 4.96647C11.0632 4.32215 10.4702 4 9.79544 4C8.7833 4 8.06622 4.77578 7.16073 4.77578Z" fill="#ABABAB" stroke="#ABABAB" stroke-linejoin="round"/>
</svg>
