<svg width="16" height="16" viewBox="0 0 16 16" fill="none" xmlns="http://www.w3.org/2000/svg">
<path d="M10.1828 5.46293C9.91039 5.40976 9.62366 5.38318 9.32258 5.38318C8.80645 5.38318 8.32975 5.48619 7.89247 5.69221C7.46237 5.89159 7.08961 6.15742 6.77419 6.48972C6.45878 6.81537 6.21147 7.19418 6.03226 7.62617C5.86021 8.05151 5.77419 8.48681 5.77419 8.93209C5.77419 9.3973 5.8853 9.76947 6.10753 10.0486C6.33692 10.3211 6.67383 10.4573 7.11828 10.4573C7.33333 10.4573 7.54839 10.4274 7.76344 10.3676C7.98566 10.3011 8.19355 10.1882 8.3871 10.0287C8.58781 9.86916 8.77419 9.65649 8.94624 9.39065C9.11828 9.12482 9.26165 8.78588 9.37634 8.37383L10.1828 5.46293ZM11.0108 8.18442C10.8746 8.66957 10.8065 9.06501 10.8065 9.37072C10.8136 9.66978 10.8674 9.90571 10.9677 10.0785C11.0681 10.2513 11.2079 10.3709 11.3871 10.4374C11.5663 10.4972 11.7634 10.5271 11.9785 10.5271C12.3154 10.5271 12.6344 10.4374 12.9355 10.2579C13.2437 10.0719 13.5125 9.81267 13.7419 9.48037C13.9713 9.14143 14.1541 8.73936 14.2903 8.27414C14.4265 7.80893 14.4946 7.2972 14.4946 6.73894C14.4946 5.8351 14.3369 5.04091 14.0215 4.35639C13.7133 3.67186 13.2832 3.10363 12.7312 2.65171C12.1864 2.19979 11.5412 1.86085 10.7957 1.63489C10.0502 1.40228 9.24014 1.28598 8.36559 1.28598C7.41219 1.28598 6.51971 1.45545 5.68817 1.79439C4.85663 2.12669 4.13262 2.58858 3.51613 3.18006C2.90681 3.77155 2.42294 4.47269 2.06452 5.28349C1.71326 6.08764 1.53763 6.96158 1.53763 7.9053C1.53763 9.02181 1.7276 10.0054 2.10753 10.8561C2.48746 11.7067 3.00358 12.4179 3.65591 12.9894C4.31541 13.5543 5.08961 13.9796 5.97849 14.2654C6.86738 14.5578 7.82079 14.7041 8.83871 14.7041C9.92832 14.7041 10.8889 14.5977 11.7204 14.385C12.552 14.1724 13.2581 13.9032 13.8387 13.5776C13.9964 13.4912 14.1326 13.4646 14.2473 13.4978C14.362 13.531 14.448 13.6141 14.5054 13.747L14.7957 14.4648C14.0358 14.93 13.1613 15.3022 12.172 15.5813C11.1828 15.8604 10.0717 16 8.83871 16C7.57706 16 6.4086 15.8139 5.33333 15.4417C4.25806 15.0762 3.32258 14.5445 2.52688 13.8467C1.73835 13.1556 1.11828 12.3115 0.666667 11.3146C0.222222 10.3111 0 9.17466 0 7.9053C0 7.18754 0.0967742 6.49304 0.290323 5.82181C0.491039 5.15057 0.770609 4.52253 1.12903 3.93769C1.48746 3.35285 1.92115 2.81786 2.43011 2.33271C2.93907 1.84756 3.50179 1.43219 4.11828 1.0866C4.73477 0.741017 5.40143 0.475181 6.11828 0.289096C6.83513 0.0963653 7.58423 0 8.36559 0C9.03226 0 9.68459 0.0697816 10.3226 0.209345C10.9606 0.342263 11.5591 0.54164 12.1183 0.807476C12.6846 1.06667 13.2043 1.38899 13.6774 1.77445C14.1577 2.15327 14.5663 2.59522 14.9032 3.10031C15.2473 3.59875 15.5161 4.15369 15.7097 4.76511C15.9032 5.36989 16 6.02783 16 6.73894C16 7.4567 15.8889 8.12129 15.6667 8.73271C15.4444 9.34413 15.1398 9.8758 14.7527 10.3277C14.3656 10.773 13.9068 11.1252 13.3763 11.3844C12.853 11.637 12.2867 11.7632 11.6774 11.7632C11.1398 11.7632 10.6882 11.6436 10.3226 11.4044C9.96416 11.1651 9.73118 10.7929 9.62366 10.2879C9.20788 10.8062 8.75627 11.1784 8.26882 11.4044C7.78853 11.6237 7.26882 11.7333 6.70968 11.7333C6.27957 11.7333 5.90323 11.6636 5.58064 11.524C5.25806 11.3844 4.98925 11.1917 4.77419 10.9458C4.55914 10.6999 4.39785 10.4108 4.29032 10.0785C4.18996 9.73956 4.13978 9.37404 4.13978 8.98193C4.13978 8.41703 4.25448 7.84881 4.48387 7.27726C4.72043 6.69906 5.0681 6.17736 5.52688 5.71215C5.99283 5.24694 6.56989 4.86812 7.25806 4.5757C7.94624 4.28328 8.74552 4.13707 9.65591 4.13707C10.1505 4.13707 10.5842 4.17362 10.957 4.24673C11.3297 4.31983 11.6846 4.42284 12.0215 4.55576L11.0108 8.18442Z" fill="white"/>
</svg>
