<svg width="37" height="37" viewBox="0 0 37 37" fill="none" xmlns="http://www.w3.org/2000/svg">
<path d="M1.4375 8.4375H5.38882L7.18487 6.25H14.1895L15.8059 8.4375H20.6875M22.4375 8.4375H23.3125M25.0625 8.4375H35.7812M6.25 13.25L7.96263 17.5316C7.97684 17.5671 8.02656 17.5686 8.04284 17.534L9.71042 13.9904C9.72618 13.9569 9.77382 13.9569 9.78959 13.9904L11.4572 17.534C11.4734 17.5686 11.5232 17.5671 11.5374 17.5316L13.25 13.25M15 13.25L16.7126 17.5316C16.7268 17.5671 16.7766 17.5686 16.7928 17.534L18.4604 13.9904C18.4762 13.9569 18.5238 13.9569 18.5396 13.9904L20.2072 17.534C20.2234 17.5686 20.2732 17.5671 20.2874 17.5316L22 13.25M23.75 13.25L25.4626 17.5316C25.4768 17.5671 25.5266 17.5686 25.5428 17.534L27.2104 13.9904C27.2262 13.9569 27.2738 13.9569 27.2896 13.9904L28.9572 17.534C28.9734 17.5686 29.0232 17.5671 29.0374 17.5316L30.75 13.25M6.25 21.125H30.75M6.25 24.625H20.4688M6.25 28.125H23.75M2.75 36H34.25C35.2165 36 36 35.2165 36 34.25V2.75C36 1.7835 35.2165 1 34.25 1H2.75C1.7835 1 1 1.7835 1 2.75V34.25C1 35.2165 1.7835 36 2.75 36ZM23.75 4.9375C23.75 5.66237 23.1624 6.25 22.4375 6.25C21.7126 6.25 21.125 5.66237 21.125 4.9375C21.125 4.21263 21.7126 3.625 22.4375 3.625C23.1624 3.625 23.75 4.21263 23.75 4.9375ZM28.125 4.9375C28.125 5.66237 27.5374 6.25 26.8125 6.25C26.0876 6.25 25.5 5.66237 25.5 4.9375C25.5 4.21263 26.0876 3.625 26.8125 3.625C27.5374 3.625 28.125 4.21263 28.125 4.9375ZM32.5 4.9375C32.5 5.66237 31.9124 6.25 31.1875 6.25C30.4626 6.25 29.875 5.66237 29.875 4.9375C29.875 4.21263 30.4626 3.625 31.1875 3.625C31.9124 3.625 32.5 4.21263 32.5 4.9375ZM25.9413 24.6756L26.2856 29.2758C26.2883 29.312 26.3314 29.3293 26.3585 29.305L27.7112 28.0885L30.695 31.1553C30.7122 31.1729 30.7405 31.1729 30.7577 31.1553L32.4703 29.3951C32.4868 29.3781 32.4868 29.3511 32.4703 29.3341L29.4848 26.2656L30.8274 25.0582C30.856 25.0325 30.8398 24.9849 30.8013 24.9821L25.9881 24.6287C25.9615 24.6268 25.9393 24.649 25.9413 24.6756Z" stroke="white" stroke-linecap="round"/>
</svg>
