<svg width="24" height="26" viewBox="0 0 24 26" fill="none" xmlns="http://www.w3.org/2000/svg">
<path d="M16 10C13.7909 10 12 11.7909 12 14C12 11.7909 10.2091 10 8 10C10.2091 10 12 8.20914 12 6C12 8.20914 13.7909 10 16 10Z" fill="white"/>
<path d="M12 1C7.5892 1 4 4.1556 4 8.0344C4 10.0864 5.3472 12.1992 6.6484 14.2408C7.7696 15.998 8.8404 17.6752 9.1748 19.4H14.8248C15.16 17.6748 16.2296 15.9976 17.3504 14.2408C18.6524 12.1992 20 10.0864 20 8.0344C20 4.1556 16.4108 1 12 1Z" stroke="white"/>
<path d="M9.5 21.9469V21.5004L14.5 21.5V21.9586L14.1464 22.058V22.4368V22.688V23.2459L14.1405 23.2478L13.7924 23.3588V23.7242V23.9737V24.5184H13.6798H13.3672L13.2303 24.7994C13.0414 25.1871 12.5803 25.5 11.9912 25.5C11.4012 25.5 10.9401 25.1867 10.7523 24.8005L10.6155 24.5192H10.3027H10.209V23.9745V23.733V23.233H9.85452V22.6884V22.4469V21.9469H9.5Z" fill="white" stroke="white"/>
</svg>
