<svg width="24" height="24" viewBox="0 0 24 24" fill="none" xmlns="http://www.w3.org/2000/svg">
<g clip-path="url(#clip0_267_362)">
<path d="M12 17.1667L15 14L16.4571 15.3889M12 17.1667L9 14L7.54292 15.3889M12 17.1667L13.7828 18.9444L16.4571 15.3889M12 17.1667L10.2172 18.9444L7.54292 15.3889M16.4571 15.3889C16.4571 15.3889 19.0036 15.9931 20.0227 17.1667C21.4089 18.7629 20.9142 22.5 20.9142 22.5C20.9142 22.5 15.503 23.5 12 23.5C8.49697 23.5 3.08584 22.5 3.08584 22.5C3.08584 22.5 2.59105 18.7629 3.97726 17.1667C4.99642 15.9931 7.54292 15.3889 7.54292 15.3889" stroke="white" stroke-linejoin="round"/>
<path d="M10.428 12C9.50649 11.7146 8.68619 11.1846 8.03666 10.4824C8.27897 10.1837 8.425 9.79764 8.425 9.37613C8.425 8.42808 7.68627 7.65953 6.775 7.65953C6.71988 7.65953 6.66538 7.66233 6.61165 7.66783C6.53844 7.2955 6.5 6.90998 6.5 6.51513C6.5 5.91701 6.58821 5.34032 6.75184 4.79836C6.75955 4.79848 6.76727 4.79854 6.775 4.79854C7.68627 4.79854 8.425 4.02999 8.425 3.08194C8.425 2.80977 8.36411 2.5524 8.25576 2.32377C8.89181 1.70848 9.66814 1.24801 10.5293 1C10.8022 1.55648 11.3583 1.93754 12 1.93754C12.6417 1.93754 13.1978 1.55648 13.4707 1C14.3319 1.24801 15.1082 1.70848 15.7442 2.32377C15.6359 2.5524 15.575 2.80977 15.575 3.08194C15.575 4.02999 16.3137 4.79854 17.225 4.79854C17.2327 4.79854 17.2405 4.79848 17.2482 4.79836C17.4118 5.34032 17.5 5.91701 17.5 6.51513C17.5 6.90998 17.4616 7.2955 17.3884 7.66783C17.3346 7.66233 17.2801 7.65953 17.225 7.65953C16.3137 7.65953 15.575 8.42808 15.575 9.37613C15.575 9.79764 15.721 10.1837 15.9633 10.4824C15.3138 11.1846 14.4935 11.7146 13.572 12C13.3593 11.3078 12.7359 10.8066 12 10.8066C11.2641 10.8066 10.6407 11.3078 10.428 12Z" stroke="white" stroke-linejoin="round"/>
<path d="M12 8.5C13.1046 8.5 14 7.60457 14 6.5C14 5.39543 13.1046 4.5 12 4.5C10.8954 4.5 10 5.39543 10 6.5C10 7.60457 10.8954 8.5 12 8.5Z" stroke="white" stroke-linejoin="round"/>
</g>
<defs>
<clipPath id="clip0_267_362">
<rect width="24" height="24" fill="white"/>
</clipPath>
</defs>
</svg>
