<svg width="35" height="34" viewBox="0 0 35 34" fill="none" xmlns="http://www.w3.org/2000/svg">
<path d="M6.59091 1.36913C6.59091 1.11708 6.79442 0.912752 7.04545 0.912752H22.7597C23.0108 0.912752 23.2143 1.11708 23.2143 1.36913V4.10738C23.2143 4.35943 23.4178 4.56376 23.6688 4.56376C23.9199 4.56376 24.1234 4.35943 24.1234 4.10738V1.36913C24.1234 0.61298 23.5129 0 22.7597 0H7.04545C6.29234 0 5.68182 0.612979 5.68182 1.36913V4.10738C5.68182 4.35943 5.88532 4.56376 6.13636 4.56376C6.3874 4.56376 6.59091 4.35943 6.59091 4.10738V1.36913Z" fill="white"/>
<path fill-rule="evenodd" clip-rule="evenodd" d="M7.72727 9.12752C6.22104 9.12752 5 10.3535 5 11.8658C5 13.3781 6.22104 14.604 7.72727 14.604C9.2335 14.604 10.4545 13.3781 10.4545 11.8658C10.4545 10.3535 9.2335 9.12752 7.72727 9.12752ZM5.90909 11.8658C5.90909 10.8576 6.72312 10.0403 7.72727 10.0403C8.73143 10.0403 9.54545 10.8576 9.54545 11.8658C9.54545 12.874 8.73143 13.6913 7.72727 13.6913C6.72312 13.6913 5.90909 12.874 5.90909 11.8658Z" fill="white"/>
<path fill-rule="evenodd" clip-rule="evenodd" d="M7.72727 5.93289C3.45962 5.93289 0 9.40643 0 13.6913C0 15.7571 0.8048 17.6353 2.11588 19.0252C3.52368 20.5177 5.51745 21.4497 7.72727 21.4497C9.9371 21.4497 11.9309 20.5177 13.3387 19.0252C14.6497 17.6353 15.4545 15.7571 15.4545 13.6913C15.4545 9.40643 11.9949 5.93289 7.72727 5.93289ZM0.909091 13.6913C0.909091 9.91053 3.96169 6.84564 7.72727 6.84564C11.4929 6.84564 14.5455 9.91053 14.5455 13.6913C14.5455 15.2818 14.0056 16.7451 13.0993 17.9074C12.9341 17.6657 12.6971 17.3841 12.363 17.1054C11.5163 16.399 10.088 15.745 7.72727 15.745C5.36652 15.745 3.93823 16.399 3.09155 17.1054C2.7574 17.3841 2.52044 17.6657 2.35526 17.9074C1.44892 16.7451 0.909091 15.2818 0.909091 13.6913ZM12.4324 18.5533C12.4447 18.574 12.4561 18.5938 12.4666 18.6127C11.2393 19.8044 9.56881 20.5369 7.72727 20.5369C5.88573 20.5369 4.21525 19.8044 2.98797 18.6127C2.99845 18.5938 3.00982 18.574 3.02213 18.5533C3.1388 18.3572 3.3404 18.0845 3.67254 17.8074C4.33018 17.2587 5.54257 16.6577 7.72727 16.6577C9.91197 16.6577 11.1244 17.2587 11.782 17.8074C12.1141 18.0845 12.3157 18.3572 12.4324 18.5533Z" fill="white"/>
<path d="M23.6688 11.1812C23.9199 11.1812 24.1234 11.3855 24.1234 11.6376V32.6309C24.1234 33.387 23.5129 34 22.7597 34H7.04545C6.29234 34 5.68182 33.387 5.68182 32.6309V22.9294C5.68182 22.6773 5.88532 22.473 6.13636 22.473C6.3874 22.473 6.59091 22.6773 6.59091 22.9294V32.6309C6.59091 32.8829 6.79441 33.0872 7.04545 33.0872H22.7597C23.0108 33.0872 23.2143 32.8829 23.2143 32.6309V11.6376C23.2143 11.3855 23.4178 11.1812 23.6688 11.1812Z" fill="white"/>
<path d="M13.1818 2.28188C12.9308 2.28188 12.7273 2.48621 12.7273 2.73826C12.7273 2.9903 12.9308 3.19463 13.1818 3.19463H16.8182C17.0692 3.19463 17.2727 2.9903 17.2727 2.73826C17.2727 2.48621 17.0692 2.28188 16.8182 2.28188H13.1818Z" fill="white"/>
<path fill-rule="evenodd" clip-rule="evenodd" d="M20.4545 5.47651C19.1994 5.47651 18.1818 6.49814 18.1818 7.75839C18.1818 9.01864 19.1994 10.0403 20.4545 10.0403H26.8182C28.0734 10.0403 29.0909 9.01864 29.0909 7.75839C29.0909 6.49814 28.0734 5.47651 26.8182 5.47651H20.4545ZM26.8182 6.38926H20.4545C19.7014 6.38926 19.0909 7.00224 19.0909 7.75839C19.0909 8.51454 19.7014 9.12752 20.4545 9.12752H26.8182C27.5713 9.12752 28.1818 8.51454 28.1818 7.75839C28.1818 7.00224 27.5713 6.38926 26.8182 6.38926Z" fill="white"/>
<path d="M2.72727 24.6443C2.97831 24.6443 3.18182 24.44 3.18182 24.1879C3.18182 23.9359 2.97831 23.7315 2.72727 23.7315C2.47623 23.7315 2.27273 23.9359 2.27273 24.1879C2.27273 24.44 2.47623 24.6443 2.72727 24.6443Z" fill="white"/>
<path d="M3.18182 26.4698C3.18182 26.7218 2.97831 26.9262 2.72727 26.9262C2.47623 26.9262 2.27273 26.7218 2.27273 26.4698C2.27273 26.2178 2.47623 26.0134 2.72727 26.0134C2.97831 26.0134 3.18182 26.2178 3.18182 26.4698Z" fill="white"/>
<path d="M2.72727 29.2081C2.97831 29.2081 3.18182 29.0037 3.18182 28.7517C3.18182 28.4996 2.97831 28.2953 2.72727 28.2953C2.47623 28.2953 2.27273 28.4996 2.27273 28.7517C2.27273 29.0037 2.47623 29.2081 2.72727 29.2081Z" fill="white"/>
<path d="M9.09091 24.1879C9.09091 23.9359 9.29442 23.7315 9.54545 23.7315H20.2273C20.4783 23.7315 20.6818 23.9359 20.6818 24.1879C20.6818 24.44 20.4783 24.6443 20.2273 24.6443H9.54545C9.29442 24.6443 9.09091 24.44 9.09091 24.1879Z" fill="white"/>
<path d="M9.09091 26.4698C9.09091 26.2178 9.29442 26.0134 9.54545 26.0134H14.5455C14.7965 26.0134 15 26.2178 15 26.4698C15 26.7218 14.7965 26.9262 14.5455 26.9262H9.54545C9.29442 26.9262 9.09091 26.7218 9.09091 26.4698Z" fill="white"/>
<path d="M9.54545 28.2953C9.29442 28.2953 9.09091 28.4996 9.09091 28.7517C9.09091 29.0037 9.29442 29.2081 9.54545 29.2081H17.7273C17.9783 29.2081 18.1818 29.0037 18.1818 28.7517C18.1818 28.4996 17.9783 28.2953 17.7273 28.2953H9.54545Z" fill="white"/>
<path fill-rule="evenodd" clip-rule="evenodd" d="M28.1818 20.5369C28.1818 19.5287 28.9958 18.7114 30 18.7114C31.0042 18.7114 31.8182 19.5287 31.8182 20.5369C31.8182 21.5451 31.0042 22.3624 30 22.3624C28.9958 22.3624 28.1818 21.5451 28.1818 20.5369ZM30 19.6242C29.4979 19.6242 29.0909 20.0328 29.0909 20.5369C29.0909 21.041 29.4979 21.4497 30 21.4497C30.5021 21.4497 30.9091 21.041 30.9091 20.5369C30.9091 20.0328 30.5021 19.6242 30 19.6242Z" fill="white"/>
<path fill-rule="evenodd" clip-rule="evenodd" d="M29.1927 15.7722C29.0956 15.5735 28.8706 15.4734 28.6588 15.5346C27.8728 15.7619 27.1665 16.1832 26.5896 16.7436C26.4495 16.8796 26.4114 17.0902 26.4948 17.267C26.556 17.3965 26.5909 17.5434 26.5909 17.7007C26.5909 18.2525 26.1671 18.6687 25.6818 18.6687L25.6694 18.6686C25.4665 18.6656 25.2862 18.798 25.2275 18.993C25.0795 19.4852 25 20.0081 25 20.5495C25 20.9068 25.0347 21.2562 25.1008 21.594C25.1461 21.8253 25.3594 21.9839 25.593 21.96C25.6221 21.957 25.6517 21.9554 25.6818 21.9554C26.1671 21.9554 26.5909 22.3716 26.5909 22.9234C26.5909 23.1665 26.5073 23.3858 26.3715 23.554C26.2291 23.7302 26.2374 23.9847 26.3908 24.1513C26.9796 24.7904 27.7254 25.2751 28.5664 25.5366C28.6817 25.5725 28.8065 25.5608 28.9132 25.5042C29.02 25.4475 29.0999 25.3506 29.1354 25.2347C29.2572 24.8365 29.607 24.5668 30 24.5668C30.393 24.5668 30.7428 24.8365 30.8646 25.2347C30.9001 25.3506 30.98 25.4475 31.0868 25.5042C31.1935 25.5608 31.3183 25.5725 31.4336 25.5366C32.2746 25.2751 33.0204 24.7904 33.6092 24.1513C33.7626 23.9847 33.7709 23.7302 33.6285 23.554C33.4927 23.3858 33.4091 23.1665 33.4091 22.9234C33.4091 22.3716 33.8329 21.9554 34.3182 21.9554C34.3483 21.9554 34.3779 21.957 34.407 21.96C34.6405 21.9839 34.8539 21.8253 34.8992 21.594C34.9653 21.2562 35 20.9068 35 20.5495C35 20.0081 34.9205 19.4852 34.7725 18.993C34.7138 18.798 34.5335 18.6656 34.3306 18.6686L34.3182 18.6687C33.8329 18.6687 33.4091 18.2525 33.4091 17.7007C33.4091 17.5434 33.444 17.3965 33.5052 17.267C33.5886 17.0902 33.5505 16.8796 33.4104 16.7436C32.8335 16.1832 32.1272 15.7619 31.3412 15.5346C31.1294 15.4734 30.9044 15.5735 30.8073 15.7722C30.652 16.0903 30.3433 16.2947 30 16.2947C29.6567 16.2947 29.348 16.0903 29.1927 15.7722ZM27.5 17.7007C27.5 17.5297 27.4778 17.3635 27.4361 17.2052C27.7811 16.9137 28.1713 16.6804 28.5933 16.5183C28.924 16.9354 29.4281 17.2075 30 17.2075C30.5719 17.2075 31.076 16.9354 31.4067 16.5183C31.8287 16.6804 32.2189 16.9137 32.5639 17.2052C32.5222 17.3635 32.5 17.5297 32.5 17.7007C32.5 18.606 33.1262 19.3838 33.9793 19.5491C34.0522 19.8697 34.0909 20.2046 34.0909 20.5495C34.0909 20.7227 34.0811 20.8934 34.0622 21.061C33.167 21.1904 32.5 21.9891 32.5 22.9234C32.5 23.2293 32.5708 23.5194 32.6972 23.7761C32.355 24.0912 31.963 24.3467 31.5359 24.5284C31.2163 24.0076 30.6531 23.6541 30 23.6541C29.3469 23.6541 28.7837 24.0076 28.4641 24.5284C28.037 24.3467 27.645 24.0912 27.3028 23.7761C27.4292 23.5194 27.5 23.2293 27.5 22.9234C27.5 21.9891 26.833 21.1904 25.9378 21.061C25.9189 20.8934 25.9091 20.7227 25.9091 20.5495C25.9091 20.2046 25.9478 19.8697 26.0207 19.5491C26.8738 19.3839 27.5 18.606 27.5 17.7007Z" fill="white"/>
</svg>
