<svg width="24" height="24" viewBox="0 0 24 24" fill="none" xmlns="http://www.w3.org/2000/svg">
<path d="M1 13.5C1 13.5 3.12948 9.50723 7 7.34823C8.4342 6.54822 10.1075 6 12 6C13.8925 6 15.5658 6.54822 17 7.34823C20.8705 9.50723 23 13.5 23 13.5C23 13.5 19 21 12 21C5 21 1 13.5 1 13.5Z" stroke="white" stroke-linecap="round" stroke-linejoin="round"/>
<path d="M12 16.5C13.6569 16.5 15 15.1569 15 13.5C15 11.8431 13.6569 10.5 12 10.5C10.3431 10.5 9 11.8431 9 13.5C9 15.1569 10.3431 16.5 12 16.5Z" stroke="white" stroke-linecap="round" stroke-linejoin="round"/>
</svg>
