<svg width="42" height="42" viewBox="0 0 42 42" fill="none" xmlns="http://www.w3.org/2000/svg">
<path d="M21 25.7863V31.2564M21 25.7863L26.641 23.0513M21 25.7863L15.359 23.0513M21 31.2564L26.3519 28.6615C26.5287 28.5758 26.641 28.3966 26.641 28.2001V23.0513M21 31.2564L15.6481 28.6615C15.4713 28.5758 15.359 28.3966 15.359 28.2001V23.0513M26.641 23.0513L21.2293 20.3454C21.085 20.2733 20.915 20.2733 20.7707 20.3454L15.359 23.0513M26.641 17.3248V22.7949M26.641 17.3248L32.2821 14.5897M26.641 17.3248L21 14.5897M26.641 22.7949L31.993 20.2C32.1698 20.1143 32.2821 19.9351 32.2821 19.7386V14.5897M26.641 22.7949L21.2891 20.2C21.1123 20.1143 21 19.9351 21 19.7386M32.2821 14.5897L26.8704 11.8839C26.726 11.8117 26.5561 11.8117 26.4117 11.8839L21 14.5897M21 14.5897V19.7386M21 14.5897L15.359 17.3248M21 14.5897L15.5883 11.8839C15.4439 11.8117 15.274 11.8117 15.1296 11.8839L9.71795 14.5897M21 19.7386C21 19.9351 20.8877 20.1143 20.7109 20.2L15.359 22.7949M15.359 17.3248V22.7949M15.359 17.3248L9.71795 14.5897M15.359 22.7949L10.007 20.2C9.83023 20.1143 9.71795 19.9351 9.71795 19.7386V14.5897M5.10256 15.1026C5.61538 13.5641 6.89744 11.2564 7.92308 10.2308M37.1538 15.1026C36.641 13.5641 35.359 11.2564 34.3333 10.2308M10.2308 7.7832C11.4441 6.70726 13.7083 5.34977 15.1093 4.97436M31.5196 7.7832C30.3062 6.70726 28.0421 5.34977 26.641 4.97436M5.10256 27.1538C5.61538 28.6923 6.89744 31 7.92308 32.0256M37.1538 27.1538C36.641 28.6923 35.359 31 34.3333 32.0256M10.2308 34.4732C11.4441 35.5491 13.7083 36.9066 15.1093 37.2821M31.5196 34.4732C30.3062 35.5491 28.0421 36.9066 26.641 37.2821M24.0769 4.07692C24.0769 5.77626 22.6993 7.15385 21 7.15385C19.3007 7.15385 17.9231 5.77626 17.9231 4.07692C17.9231 2.37759 19.3007 1 21 1C22.6993 1 24.0769 2.37759 24.0769 4.07692ZM41 21C41 22.6993 39.6224 24.0769 37.9231 24.0769C36.2237 24.0769 34.8462 22.6993 34.8462 21C34.8462 19.3007 36.2237 17.9231 37.9231 17.9231C39.6224 17.9231 41 19.3007 41 21ZM7.15385 21C7.15385 22.6993 5.77626 24.0769 4.07692 24.0769C2.37759 24.0769 1 22.6993 1 21C1 19.3007 2.37759 17.9231 4.07692 17.9231C5.77626 17.9231 7.15385 19.3007 7.15385 21ZM24.0769 37.9231C24.0769 39.6224 22.6993 41 21 41C19.3007 41 17.9231 39.6224 17.9231 37.9231C17.9231 36.2237 19.3007 34.8462 21 34.8462C22.6993 34.8462 24.0769 36.2237 24.0769 37.9231Z" stroke="white" stroke-linecap="round"/>
</svg>
