<svg width="20" height="20" viewBox="0 0 20 20" fill="none" xmlns="http://www.w3.org/2000/svg">
<path d="M6.14909 17.5C6.90186 17.5 8.75557 17.3695 10.1409 16.3682V17.1277H12.9359L12.9388 13.7883L14.1059 12.5924L16.6464 17.1277H20L16.1512 10.6475L19.8999 6.56316H16.4669L12.9388 10.5705V2.87232H10.1409V4.09024C9.28897 3.18478 7.90793 2.5 5.75444 2.5C1.09312 2.5 0.21796 5.30698 0.21796 6.87821C0.21796 9.03726 1.39052 10.2371 3.43302 10.7273L6.32886 11.433C7.85623 11.8067 8.94839 12.0811 8.94839 13.2002C8.94839 14.6928 7.36007 15.0456 5.93137 15.0456C3.31278 15.0456 2.8771 13.5345 2.8771 12.7297H0C0 14.4965 0.912394 17.5 6.14909 17.5ZM8.0545 8.99947L4.54487 8.15364C3.94816 8.01654 3.01561 7.77991 3.01561 6.66247C3.01561 5.38562 4.38502 4.9532 5.53529 4.9532C8.15364 4.9532 8.3927 6.46644 8.4705 7.11343H10.1409V9.77064C9.52803 9.41639 8.80467 9.18634 8.0545 8.99947Z" fill="white"/>
</svg>
