<svg width="270" height="41" viewBox="0 0 270 41" fill="none" xmlns="http://www.w3.org/2000/svg">
<g clip-path="url(#clip0_690_848)">
<path d="M44.2059 21.9975C43.9412 9.89715 34.1541 0.192627 22.1153 0.192627C9.90706 0.192627 0 10.1913 0 22.5109H8.84118C8.84118 32.3616 16.7629 40.3548 26.5235 40.3548C36.1165 40.3548 43.9412 32.6308 44.2059 22.9993V21.9975ZM26.5235 31.4328C25.3626 31.4352 24.2126 31.2061 23.1395 30.7587C22.0663 30.3112 21.0911 29.6543 20.2698 28.8254C19.4485 27.9966 18.7972 27.0122 18.3532 25.9286C17.9091 24.8451 17.6812 23.6836 17.6824 22.5109C17.6812 21.3382 17.9091 20.1767 18.3532 19.0932C18.7972 18.0096 19.4485 17.0252 20.2698 16.1963C21.0911 15.3675 22.0663 14.7106 23.1395 14.2631C24.2126 13.8157 25.3626 13.5866 26.5235 13.5889C27.6845 13.5866 28.8345 13.8157 29.9076 14.2631C30.9807 14.7106 31.9559 15.3675 32.7772 16.1963C33.5986 17.0252 34.2499 18.0096 34.6939 19.0932C35.1379 20.1767 35.3659 21.3382 35.3647 22.5109C35.3659 23.6836 35.1379 24.8451 34.6939 25.9286C34.2499 27.0122 33.5986 27.9966 32.7772 28.8254C31.9559 29.6543 30.9807 30.3112 29.9076 30.7587C28.8345 31.2061 27.6845 31.4352 26.5235 31.4328ZM170.066 8.50315C162.364 8.50315 156.09 14.7868 156.09 22.4859C156.09 30.333 162.219 36.4687 170.066 36.4687C177.891 36.4687 184.043 30.333 184.043 22.4859C184.018 14.7851 177.769 8.50315 170.066 8.50315ZM170.066 30.6253C165.949 30.6253 162.946 26.9122 162.946 22.5109C162.946 18.1114 165.925 14.3947 170.066 14.3947C174.088 14.3947 177.115 18.1845 177.115 22.5109C177.115 26.9122 174.136 30.6253 170.066 30.6253ZM108.662 9.11458L108.639 12.2199C108.639 12.2199 108.323 11.8277 108.056 11.5354C106.751 9.94706 104.206 8.52811 100.5 8.52811C93.6441 8.52811 88.0482 14.81 88.0482 22.5109C88.0482 30.2349 93.6441 36.4937 100.5 36.4937C104.231 36.4937 106.749 35.0765 108.056 33.4864C108.323 33.1691 108.639 32.8019 108.639 32.8019L108.664 35.9072H115.445V9.11458H108.662ZM109.075 22.5109C109.075 27.0815 106.288 30.6271 102.074 30.6271C97.86 30.6271 94.9041 27.0815 94.9041 22.5109C94.9041 17.9403 97.86 14.3947 102.074 14.3947C106.288 14.3715 109.075 17.9153 109.075 22.5109C109.075 22.4859 109.075 22.4859 109.075 22.5109ZM235.493 9.11458L235.468 12.2199C235.468 12.2199 235.152 11.8277 234.886 11.5354C233.578 9.94706 231.035 8.52811 227.329 8.52811C220.474 8.52811 214.879 14.81 214.879 22.5109C214.879 30.2349 220.474 36.4937 227.329 36.4937C231.06 36.4937 233.578 35.0765 234.886 33.4864C235.152 33.1691 235.468 32.8019 235.468 32.8019L235.493 35.9072H242.275V9.11458H235.493ZM235.904 22.5109C235.904 27.0815 233.118 30.6271 228.904 30.6271C224.689 30.6271 221.734 27.0815 221.734 22.5109C221.734 17.9403 224.689 14.3947 228.904 14.3947C233.118 14.3715 235.904 17.9153 235.904 22.5109C235.904 22.4859 235.904 22.4859 235.904 22.5109ZM77.8518 18.9421H84.7076C83.0347 12.391 78.0935 8.50493 71.4335 8.50493C63.4641 8.50493 57.4571 14.5177 57.4571 22.4859C57.4571 30.4542 63.4641 36.4687 71.4335 36.4687C78.0935 36.4687 83.0347 32.5826 84.7076 26.0315H77.8271C76.5918 28.8427 74.3876 30.6022 71.4335 30.6022C67.2424 30.6022 64.3112 27.0815 64.3112 22.4859C64.3112 17.8672 67.2424 14.3715 71.4335 14.3715C74.3876 14.3715 76.6165 16.1309 77.8518 18.9421ZM127.339 9.11458H121.5V35.884H128.306V19.4305L136.445 29.9426L144.535 19.4305V35.884H151.341V9.1128H145.504L136.398 20.8709L127.338 9.1128L127.339 9.11458ZM213.208 9.11458H205.189L195.524 20.8727V9.11458H188.718V35.884H195.524V24.322L206.305 35.884H214.999L202.161 22.2934L213.208 9.11458ZM254.896 35.884H261.702V14.8849H269.719V9.11458H246.902V14.8849H254.896V35.884Z" fill="white"/>
</g>
<defs>
<clipPath id="clip0_690_848">
<rect width="270" height="41" fill="white"/>
</clipPath>
</defs>
</svg>
