<svg width="24" height="24" viewBox="0 0 24 24" fill="none" xmlns="http://www.w3.org/2000/svg">
<path d="M7.3789 21C8.28223 21 10.5067 20.8434 12.1691 19.6419V20.5532H15.5231L15.5265 16.5459L16.927 15.1109L19.9757 20.5532H24L19.3815 12.7769L23.8799 7.87579H19.7603L15.5265 12.6845V3.44679H12.1691V4.90829C11.1468 3.82174 9.48952 3 6.90532 3C1.31174 3 0.261552 6.36838 0.261552 8.25385C0.261552 10.8447 1.66862 12.2845 4.11962 12.8727L7.59463 13.7195C9.42748 14.168 10.7381 14.4973 10.7381 15.8402C10.7381 17.6313 8.83209 18.0547 7.11764 18.0547C3.97534 18.0547 3.45252 16.2414 3.45252 15.2757H0C0 17.3958 1.09487 21 7.3789 21ZM9.6654 10.7994L5.45385 9.78436C4.73779 9.61985 3.61873 9.33589 3.61873 7.99496C3.61873 6.46275 5.26202 5.94384 6.64235 5.94384C9.78436 5.94384 10.0712 7.75973 10.1646 8.53612H12.1691V11.7248C11.4336 11.2997 10.5656 11.0236 9.6654 10.7994Z" fill="white"/>
</svg>
