<svg width="144" height="143" viewBox="0 0 144 143" fill="none" xmlns="http://www.w3.org/2000/svg">
<g clip-path="url(#clip0_690_353)">
<path d="M43.858 136C52.9255 128.628 71.0605 107.482 71.0605 81.868C71.0605 72.2707 68.5573 65.1053 64.937 58.7628M38.9419 7.27139C40.8764 24.3569 47.6761 34.7054 54.5239 43.9095M54.5239 43.9095C48.5652 37.198 32.5181 24.5672 16 27.7359M54.5239 43.9095C58.2367 48.8999 61.9636 53.5539 64.937 58.7628M64.937 58.7628C64.5589 55.8481 64.75 51.067 66.4721 45.9151M94.9855 1.66015C95.3133 12.2225 90.0694 23.1149 79.254 29.3863C71.9809 33.6037 68.3903 40.1766 66.4721 45.9151M66.4721 45.9151C68.3389 34.9043 68.5627 10.5061 54.5239 1" stroke="white" stroke-width="1.5" stroke-linecap="round"/>
<path d="M23.7975 124.504C29.0745 123.523 36.3025 121.257 43.2905 117.43M66.0887 83.2386C65.978 72.0666 57.346 70.9538 47.2559 72.1775M66.0887 83.2386C66.3915 79.2448 64.7861 72.5512 58.6515 67.0627M66.0887 83.2386C66.1214 86.5421 65.7153 89.6198 64.9515 92.4819M1 70.0338C3.86346 71.9045 12.4318 75.6459 23.7975 75.6459C26.2213 75.6459 29.0431 75.2808 32.0575 74.7751M12.564 68.0531C15.4274 70.3336 23.335 74.8709 32.0575 74.7751M32.0575 74.7751C36.9099 73.9612 42.2615 72.7831 47.2559 72.1775M26.7711 61.7808C28.2029 65.4107 34.3042 72.5719 47.2559 72.1775M1 67.0627C3.01543 63.6096 13.0646 58.6516 26.7711 58.0918M2.32095 52.5374C7.3875 51.3986 19.3707 50.9152 26.7711 58.0918M26.7711 58.0918C28.7891 58.0094 30.8862 58.0223 33.0487 58.1494C41.6033 58.6522 48.0725 60.5301 52.9142 63.1012M58.6515 67.0627C56.0642 63.3213 50.5593 57.4479 53.5328 42.9639C56.176 30.0892 56.176 10.612 45.9337 5M58.6515 67.0627C57.0594 65.6383 55.1623 64.295 52.9142 63.1012M52.9142 63.1012C49.5243 61.9578 44.6435 58.5188 40.3839 51.8771M31.3961 11.9325C30.9614 31.0434 35.2152 43.818 40.3839 51.8771M40.3839 51.8771C37.4129 49.1622 31.7206 45.455 24.7881 43.7477M5.95534 45.2747C12.5225 42.2922 19.0762 42.3411 24.7881 43.7477M24.7881 43.7477C21.5947 42.6061 14.679 38.5402 12.564 31.4096M43.2905 117.43C40.7574 120.008 35.8895 126.748 36.6825 133.087M43.2905 117.43C52.7861 112.23 61.8388 104.146 64.9515 92.4819M64.9515 92.4819C63.6783 103.816 64.1056 129.587 76 142" stroke="white" stroke-width="1.5" stroke-linecap="round"/>
<path d="M100.173 136C91.1151 128.628 73 107.482 73 81.868C73 72.2707 75.5004 65.1053 79.1168 58.7628M105.083 7.27139C103.151 24.3569 96.3587 34.7054 89.5184 43.9095M89.5184 43.9095C95.4706 37.198 111.5 24.5672 128 27.7359M89.5184 43.9095C85.8097 48.8999 82.0869 53.5539 79.1168 58.7628M79.1168 58.7628C79.4945 55.8481 78.6412 52.1614 77.5833 45.9151C75.7186 34.9043 75.495 10.5061 89.5184 1" stroke="white" stroke-width="1.5" stroke-linecap="round"/>
<path d="M120.202 124.513C114.925 123.532 107.698 121.268 100.71 117.443M77.9113 83.2691C78.022 72.1029 86.654 70.9907 96.7441 72.2137M77.9113 83.2691C77.6085 79.2774 79.2139 72.5872 85.3485 67.1016C86.9406 65.6779 88.8377 64.3353 91.0858 63.1421M77.9113 83.2691C77.8786 86.5709 78.2847 89.647 79.0485 92.5076M143 70.0711C140.137 71.9408 131.568 75.6803 120.202 75.6803C117.779 75.6803 114.957 75.3154 111.942 74.81M131.436 68.0914C128.573 70.3708 120.665 74.9057 111.942 74.81M111.942 74.81C107.09 73.9965 101.738 72.819 96.7441 72.2137M117.229 61.8224C115.797 65.4504 109.696 72.608 96.7441 72.2137M143 67.1016C140.985 63.6503 130.935 58.6948 117.229 58.1354M141.679 52.5838C136.612 51.4456 124.629 50.9624 117.229 58.1354M117.229 58.1354C115.211 58.053 113.114 58.0659 110.951 58.1929C102.397 58.6954 95.9275 60.5724 91.0858 63.1421M91.0858 63.1421C94.4757 61.9993 99.3565 58.5621 103.616 51.9239M112.604 12C113.039 31.101 108.785 43.869 103.616 51.9239M103.616 51.9239C106.587 49.2104 112.279 45.505 119.212 43.7987M138.045 45.3249C131.478 42.3439 124.924 42.3928 119.212 43.7987M119.212 43.7987C122.405 42.6577 129.321 38.5939 131.436 31.467M100.71 117.443C103.243 120.02 108.11 126.756 107.318 133.091M100.71 117.443C91.2139 112.246 82.1612 104.166 79.0485 92.5076M79.0485 92.5076C80.3217 103.836 79.8944 129.594 68 142" stroke="white" stroke-width="1.5" stroke-linecap="round"/>
</g>
<defs>
<clipPath id="clip0_690_353">
<rect width="144" height="143" fill="white" transform="matrix(-1 0 0 1 144 0)"/>
</clipPath>
</defs>
</svg>
