<svg width="16" height="16" viewBox="0 0 16 16" fill="none" xmlns="http://www.w3.org/2000/svg">
<g clip-path="url(#clip0_731_714)">
<path d="M4.3521 0C4.70759 0 5.03513 0.192799 5.20771 0.50363L6.40477 2.65994C6.56149 2.94227 6.56888 3.28377 6.42444 3.57261L5.27122 5.87908C5.27122 5.87908 5.60543 7.59726 7.00408 8.99591C8.40278 10.3946 10.1152 10.723 10.1152 10.723L12.4213 9.56997C12.7103 9.42543 13.052 9.43292 13.3345 9.58994L15.4969 10.7922C15.8075 10.9649 16 11.2922 16 11.6475V14.13C16 15.3943 14.8257 16.3074 13.6279 15.9032C11.1676 15.073 7.34865 13.4925 4.92812 11.0719C2.50759 8.65134 0.926972 4.83239 0.0968327 2.37218C-0.30735 1.17429 0.605753 0 1.86996 0H4.3521Z" fill="white"/>
</g>
<defs>
<clipPath id="clip0_731_714">
<rect width="16" height="16" fill="white"/>
</clipPath>
</defs>
</svg>
