<svg width="4" height="8" viewBox="0 0 4 8" fill="none" xmlns="http://www.w3.org/2000/svg">
<path d="M0 0.786885C0.113866 0.681239 0.238751 0.581057 0.374656 0.486339C0.514233 0.391622 0.66483 0.307833 0.826446 0.234973C0.991736 0.162113 1.16804 0.105647 1.35537 0.0655742C1.54637 0.0218581 1.75207 0 1.97245 0C2.26263 0 2.53076 0.0418944 2.77686 0.125683C3.02663 0.209472 3.24151 0.327869 3.42149 0.480875C3.60147 0.63388 3.74288 0.819673 3.84573 1.03825C3.94858 1.25683 4 1.50273 4 1.77596C4 2.05282 3.95776 2.29144 3.87328 2.4918C3.79247 2.69217 3.68779 2.86885 3.55923 3.02186C3.43434 3.17122 3.2966 3.30237 3.14601 3.4153C2.99908 3.52459 2.8595 3.62842 2.72727 3.72678C2.59504 3.82514 2.48118 3.9235 2.38567 4.02186C2.29385 4.12022 2.24059 4.22951 2.2259 4.34973L2.12672 5.18579H1.45455L1.38843 4.27869C1.37374 4.11475 1.40496 3.97268 1.48209 3.85246C1.55923 3.7286 1.66024 3.61384 1.78512 3.5082C1.91001 3.39891 2.04775 3.29326 2.19835 3.19126C2.34894 3.08561 2.48852 2.96903 2.61708 2.84153C2.74931 2.71403 2.8595 2.57013 2.94766 2.40984C3.03581 2.2459 3.07989 2.051 3.07989 1.82514C3.07989 1.66849 3.04867 1.52641 2.98623 1.39891C2.92378 1.2714 2.8393 1.16393 2.73278 1.0765C2.62626 0.985428 2.49954 0.916212 2.35262 0.868853C2.20937 0.821494 2.0551 0.797814 1.88981 0.797814C1.66575 0.797814 1.47291 0.825137 1.31129 0.879781C1.15335 0.934427 1.01928 0.994536 0.909091 1.06011C0.798898 1.12568 0.708907 1.18579 0.639118 1.24044C0.573003 1.29508 0.517906 1.3224 0.473829 1.3224C0.382002 1.3224 0.310377 1.28051 0.258953 1.19672L0 0.786885ZM1.07438 7.31694C1.07438 7.22222 1.09091 7.13297 1.12397 7.04918C1.1607 6.96539 1.20845 6.89253 1.26722 6.8306C1.32966 6.76867 1.40312 6.71949 1.4876 6.68306C1.57208 6.64663 1.66208 6.62842 1.75758 6.62842C1.85308 6.62842 1.94307 6.64663 2.02755 6.68306C2.11203 6.71949 2.18549 6.76867 2.24793 6.8306C2.31038 6.89253 2.35996 6.96539 2.39669 7.04918C2.43343 7.13297 2.45179 7.22222 2.45179 7.31694C2.45179 7.4153 2.43343 7.50638 2.39669 7.59016C2.35996 7.67031 2.31038 7.74135 2.24793 7.80328C2.18549 7.86521 2.11203 7.91257 2.02755 7.94535C1.94307 7.98178 1.85308 8 1.75758 8C1.66208 8 1.57208 7.98178 1.4876 7.94535C1.40312 7.91257 1.32966 7.86521 1.26722 7.80328C1.20845 7.74135 1.1607 7.67031 1.12397 7.59016C1.09091 7.50638 1.07438 7.4153 1.07438 7.31694Z" fill="white"/>
</svg>
