<svg width="14" height="14" viewBox="0 0 14 14" fill="none" xmlns="http://www.w3.org/2000/svg">
<g clip-path="url(#clip0_690_345)">
<path d="M5.28514 13C4.27981 12.6886 3.38494 12.1105 2.67636 11.3445C2.9407 11.0185 3.1 10.5974 3.1 10.1376C3.1 9.10336 2.29411 8.26494 1.3 8.26494C1.23987 8.26494 1.18042 8.268 1.1218 8.27399C1.04194 7.86781 1 7.44725 1 7.01651C1 6.36401 1.09623 5.7349 1.27474 5.14367C1.28314 5.14379 1.29156 5.14386 1.3 5.14386C2.29411 5.14386 3.1 4.30544 3.1 3.27121C3.1 2.9743 3.03358 2.69353 2.91538 2.44412C3.60925 1.77289 4.45615 1.27056 5.39563 1C5.69332 1.60707 6.30001 2.02278 7 2.02278C7.69999 2.02278 8.30668 1.60707 8.60437 1C9.54385 1.27056 10.3907 1.77289 11.0846 2.44412C10.9664 2.69353 10.9 2.9743 10.9 3.27121C10.9 4.30544 11.7059 5.14386 12.7 5.14386C12.7084 5.14386 12.7169 5.14379 12.7253 5.14367C12.9038 5.7349 13 6.36401 13 7.01651C13 7.44725 12.9581 7.86781 12.8782 8.27399C12.8196 8.268 12.7602 8.26494 12.7 8.26494C11.7059 8.26494 10.9 9.10336 10.9 10.1376C10.9 10.5974 11.0593 11.0185 11.3236 11.3445C10.6151 12.1105 9.72019 12.6886 8.71486 13C8.48284 12.2449 7.8028 11.6981 7 11.6981C6.1972 11.6981 5.51716 12.2449 5.28514 13Z" fill="#ABABAB" stroke="#ABABAB" stroke-linejoin="round"/>
<path d="M7 9C8.10457 9 9 8.10457 9 7C9 5.89543 8.10457 5 7 5C5.89543 5 5 5.89543 5 7C5 8.10457 5.89543 9 7 9Z" fill="#090922"/>
</g>
<defs>
<clipPath id="clip0_690_345">
<rect width="14" height="14" fill="white"/>
</clipPath>
</defs>
</svg>
