<svg width="16" height="16" viewBox="0 0 16 16" fill="none" xmlns="http://www.w3.org/2000/svg">
<g clip-path="url(#clip0_731_724)">
<path d="M14.6359 1.1236C14.6359 1.1236 16.116 0.517596 15.9927 1.98931C15.9516 2.59532 15.5816 4.71632 15.2938 7.01048L14.307 13.8064C14.307 13.8064 14.2248 14.8019 13.4847 14.9751C12.7447 15.1482 11.6346 14.3691 11.429 14.1959C11.2645 14.0661 8.34545 12.1182 7.31757 11.1659C7.02976 10.9062 6.70084 10.3868 7.35867 9.78075L11.6757 5.4522C12.1691 4.93276 12.6624 3.72076 10.6067 5.19248L4.85071 9.30464C4.85071 9.30464 4.19288 9.73747 2.95947 9.34791L0.287018 8.48219C0.287018 8.48219 -0.69973 7.83292 0.985963 7.1836C5.09741 5.14916 10.1545 3.07144 14.6359 1.1236Z" fill="white"/>
</g>
<defs>
<clipPath id="clip0_731_724">
<rect width="16" height="16" fill="white"/>
</clipPath>
</defs>
</svg>
