<svg width="23" height="16" viewBox="0 0 23 16" fill="none" xmlns="http://www.w3.org/2000/svg">
<path d="M11.05 7.8C11.05 9.06 10.9133 10.15 10.64 11.07C10.3733 11.99 10.0033 12.7533 9.53 13.36C9.05667 13.9667 8.5 14.4167 7.86 14.71C7.22 15.0033 6.53 15.15 5.79 15.15C5.05 15.15 4.36 15.0033 3.72 14.71C3.08 14.4167 2.52333 13.9667 2.05 13.36C1.58333 12.7533 1.21667 11.99 0.95 11.07C0.683333 10.15 0.55 9.06 0.55 7.8C0.55 6.54 0.683333 5.45 0.95 4.53C1.21667 3.60333 1.58333 2.84 2.05 2.24C2.52333 1.63333 3.08 1.18333 3.72 0.89C4.36 0.589999 5.05 0.439999 5.79 0.439999C6.53 0.439999 7.22 0.589999 7.86 0.89C8.5 1.18333 9.05667 1.63333 9.53 2.24C10.0033 2.84 10.3733 3.60333 10.64 4.53C10.9133 5.45 11.05 6.54 11.05 7.8ZM8.83 7.8C8.83 6.73333 8.74333 5.84667 8.57 5.14C8.40333 4.42667 8.18 3.85667 7.9 3.43C7.62 3.00333 7.29667 2.7 6.93 2.52C6.56333 2.34 6.18333 2.25 5.79 2.25C5.39 2.25 5.00667 2.34 4.64 2.52C4.28 2.7 3.96 3.00333 3.68 3.43C3.4 3.85667 3.17667 4.42667 3.01 5.14C2.84333 5.84667 2.76 6.73333 2.76 7.8C2.76 8.86667 2.84333 9.75667 3.01 10.47C3.17667 11.1767 3.4 11.7433 3.68 12.17C3.96 12.5967 4.28 12.9 4.64 13.08C5.00667 13.26 5.39 13.35 5.79 13.35C6.18333 13.35 6.56333 13.26 6.93 13.08C7.29667 12.9 7.62 12.5967 7.9 12.17C8.18 11.7433 8.40333 11.1767 8.57 10.47C8.74333 9.75667 8.83 8.86667 8.83 7.8ZM21.4416 12.97C21.6749 12.97 21.8582 13.04 21.9916 13.18C22.1249 13.3133 22.1916 13.4867 22.1916 13.7V15H12.4516V14.27C12.4516 14.1233 12.4816 13.97 12.5416 13.81C12.6016 13.65 12.6982 13.5033 12.8316 13.37L17.3116 8.88C17.6916 8.5 18.0282 8.13667 18.3216 7.79C18.6216 7.44333 18.8749 7.09667 19.0816 6.75C19.2949 6.40333 19.4549 6.05333 19.5616 5.7C19.6749 5.34 19.7316 4.96333 19.7316 4.57C19.7316 4.19 19.6716 3.85667 19.5516 3.57C19.4382 3.27667 19.2782 3.03667 19.0716 2.85C18.8716 2.65667 18.6282 2.51333 18.3416 2.42C18.0616 2.32 17.7516 2.27 17.4116 2.27C17.0849 2.27 16.7816 2.31667 16.5016 2.41C16.2282 2.50333 15.9816 2.63333 15.7616 2.8C15.5482 2.96667 15.3682 3.16667 15.2216 3.4C15.0816 3.62667 14.9782 3.87667 14.9116 4.15C14.8116 4.42333 14.6816 4.60667 14.5216 4.7C14.3682 4.79333 14.1416 4.81333 13.8416 4.76L12.7116 4.56C12.8116 3.88 12.9982 3.28333 13.2716 2.77C13.5516 2.25667 13.9016 1.83 14.3216 1.49C14.7416 1.14333 15.2216 0.883332 15.7616 0.71C16.3082 0.529999 16.8982 0.439999 17.5316 0.439999C18.1716 0.439999 18.7582 0.536666 19.2916 0.73C19.8316 0.916666 20.2949 1.18667 20.6816 1.54C21.0749 1.88667 21.3816 2.31 21.6016 2.81C21.8216 3.31 21.9316 3.87333 21.9316 4.5C21.9316 5.03333 21.8516 5.52667 21.6916 5.98C21.5382 6.43333 21.3282 6.86667 21.0616 7.28C20.7949 7.69333 20.4816 8.09667 20.1216 8.49C19.7682 8.87667 19.3949 9.27 19.0016 9.67L15.5216 13.23C15.8082 13.15 16.0949 13.0867 16.3816 13.04C16.6749 12.9933 16.9516 12.97 17.2116 12.97H21.4416Z" fill="white"/>
</svg>
