<svg width="23" height="16" viewBox="0 0 23 16" fill="none" xmlns="http://www.w3.org/2000/svg">
<path d="M11.05 7.8C11.05 9.06 10.9133 10.15 10.64 11.07C10.3733 11.99 10.0033 12.7533 9.53 13.36C9.05667 13.9667 8.5 14.4167 7.86 14.71C7.22 15.0033 6.53 15.15 5.79 15.15C5.05 15.15 4.36 15.0033 3.72 14.71C3.08 14.4167 2.52333 13.9667 2.05 13.36C1.58333 12.7533 1.21667 11.99 0.95 11.07C0.683333 10.15 0.55 9.06 0.55 7.8C0.55 6.54 0.683333 5.45 0.95 4.53C1.21667 3.60333 1.58333 2.84 2.05 2.24C2.52333 1.63333 3.08 1.18333 3.72 0.89C4.36 0.589999 5.05 0.439999 5.79 0.439999C6.53 0.439999 7.22 0.589999 7.86 0.89C8.5 1.18333 9.05667 1.63333 9.53 2.24C10.0033 2.84 10.3733 3.60333 10.64 4.53C10.9133 5.45 11.05 6.54 11.05 7.8ZM8.83 7.8C8.83 6.73333 8.74333 5.84667 8.57 5.14C8.40333 4.42667 8.18 3.85667 7.9 3.43C7.62 3.00333 7.29667 2.7 6.93 2.52C6.56333 2.34 6.18333 2.25 5.79 2.25C5.39 2.25 5.00667 2.34 4.64 2.52C4.28 2.7 3.96 3.00333 3.68 3.43C3.4 3.85667 3.17667 4.42667 3.01 5.14C2.84333 5.84667 2.76 6.73333 2.76 7.8C2.76 8.86667 2.84333 9.75667 3.01 10.47C3.17667 11.1767 3.4 11.7433 3.68 12.17C3.96 12.5967 4.28 12.9 4.64 13.08C5.00667 13.26 5.39 13.35 5.79 13.35C6.18333 13.35 6.56333 13.26 6.93 13.08C7.29667 12.9 7.62 12.5967 7.9 12.17C8.18 11.7433 8.40333 11.1767 8.57 10.47C8.74333 9.75667 8.83 8.86667 8.83 7.8ZM12.7816 4.56C12.8816 3.88 13.0682 3.28333 13.3416 2.77C13.6216 2.25667 13.9716 1.83 14.3916 1.49C14.8116 1.14333 15.2916 0.883332 15.8316 0.71C16.3782 0.529999 16.9682 0.439999 17.6016 0.439999C18.2416 0.439999 18.8216 0.533332 19.3416 0.719999C19.8682 0.9 20.3182 1.15333 20.6916 1.48C21.0716 1.80667 21.3616 2.19667 21.5616 2.65C21.7682 3.10333 21.8716 3.6 21.8716 4.14C21.8716 4.6 21.8149 5.00667 21.7016 5.36C21.5949 5.70667 21.4382 6.01333 21.2316 6.28C21.0316 6.54667 20.7849 6.77 20.4916 6.95C20.1982 7.13 19.8682 7.28 19.5016 7.4C20.3949 7.66 21.0649 8.07667 21.5116 8.65C21.9582 9.21667 22.1816 9.93 22.1816 10.79C22.1816 11.4833 22.0516 12.1 21.7916 12.64C21.5316 13.18 21.1782 13.6367 20.7316 14.01C20.2916 14.3833 19.7749 14.67 19.1816 14.87C18.5949 15.0633 17.9716 15.16 17.3116 15.16C16.5716 15.16 15.9316 15.0733 15.3916 14.9C14.8516 14.72 14.3849 14.4667 13.9916 14.14C13.6049 13.8067 13.2816 13.4067 13.0216 12.94C12.7616 12.4733 12.5416 11.95 12.3616 11.37L13.2916 10.98C13.5382 10.8733 13.7716 10.8433 13.9916 10.89C14.2182 10.9367 14.3816 11.06 14.4816 11.26C14.5882 11.4733 14.7082 11.7033 14.8416 11.95C14.9749 12.19 15.1449 12.4133 15.3516 12.62C15.5649 12.82 15.8249 12.99 16.1316 13.13C16.4449 13.2633 16.8282 13.33 17.2816 13.33C17.7416 13.33 18.1416 13.2567 18.4816 13.11C18.8282 12.9567 19.1149 12.7633 19.3416 12.53C19.5749 12.29 19.7482 12.0233 19.8616 11.73C19.9749 11.4367 20.0316 11.1467 20.0316 10.86C20.0316 10.5 19.9882 10.17 19.9016 9.87C19.8149 9.56333 19.6449 9.30333 19.3916 9.09C19.1449 8.87667 18.7916 8.71 18.3316 8.59C17.8782 8.46333 17.2816 8.4 16.5416 8.4V6.85C17.1482 6.84333 17.6582 6.78333 18.0716 6.67C18.4916 6.55 18.8249 6.39 19.0716 6.19C19.3249 5.98333 19.5049 5.73667 19.6116 5.45C19.7249 5.16333 19.7816 4.85 19.7816 4.51C19.7816 4.14333 19.7249 3.82 19.6116 3.54C19.4982 3.26 19.3382 3.02667 19.1316 2.84C18.9316 2.64667 18.6916 2.50333 18.4116 2.41C18.1316 2.31667 17.8216 2.27 17.4816 2.27C17.1549 2.27 16.8516 2.31667 16.5716 2.41C16.2982 2.50333 16.0516 2.63333 15.8316 2.8C15.6182 2.96667 15.4382 3.16667 15.2916 3.4C15.1449 3.62667 15.0382 3.87667 14.9716 4.15C14.8782 4.42333 14.7516 4.60667 14.5916 4.7C14.4382 4.79333 14.2116 4.81333 13.9116 4.76L12.7816 4.56Z" fill="white"/>
</svg>
