<svg width="23" height="16" viewBox="0 0 23 16" fill="none" xmlns="http://www.w3.org/2000/svg">
<path d="M11.05 7.8C11.05 9.06 10.9133 10.15 10.64 11.07C10.3733 11.99 10.0033 12.7533 9.53 13.36C9.05667 13.9667 8.5 14.4167 7.86 14.71C7.22 15.0033 6.53 15.15 5.79 15.15C5.05 15.15 4.36 15.0033 3.72 14.71C3.08 14.4167 2.52333 13.9667 2.05 13.36C1.58333 12.7533 1.21667 11.99 0.95 11.07C0.683333 10.15 0.55 9.06 0.55 7.8C0.55 6.54 0.683333 5.45 0.95 4.53C1.21667 3.60333 1.58333 2.84 2.05 2.24C2.52333 1.63333 3.08 1.18333 3.72 0.89C4.36 0.589999 5.05 0.439999 5.79 0.439999C6.53 0.439999 7.22 0.589999 7.86 0.89C8.5 1.18333 9.05667 1.63333 9.53 2.24C10.0033 2.84 10.3733 3.60333 10.64 4.53C10.9133 5.45 11.05 6.54 11.05 7.8ZM8.83 7.8C8.83 6.73333 8.74333 5.84667 8.57 5.14C8.40333 4.42667 8.18 3.85667 7.9 3.43C7.62 3.00333 7.29667 2.7 6.93 2.52C6.56333 2.34 6.18333 2.25 5.79 2.25C5.39 2.25 5.00667 2.34 4.64 2.52C4.28 2.7 3.96 3.00333 3.68 3.43C3.4 3.85667 3.17667 4.42667 3.01 5.14C2.84333 5.84667 2.76 6.73333 2.76 7.8C2.76 8.86667 2.84333 9.75667 3.01 10.47C3.17667 11.1767 3.4 11.7433 3.68 12.17C3.96 12.5967 4.28 12.9 4.64 13.08C5.00667 13.26 5.39 13.35 5.79 13.35C6.18333 13.35 6.56333 13.26 6.93 13.08C7.29667 12.9 7.62 12.5967 7.9 12.17C8.18 11.7433 8.40333 11.1767 8.57 10.47C8.74333 9.75667 8.83 8.86667 8.83 7.8ZM18.8116 9.68V4.42C18.8116 4 18.8416 3.54 18.9016 3.04L14.0616 9.68H18.8116ZM22.6716 9.68V10.92C22.6716 11.04 22.6316 11.1433 22.5516 11.23C22.4782 11.3167 22.3649 11.36 22.2116 11.36H20.6816V15H18.8116V11.36H12.5816C12.4282 11.36 12.2949 11.3167 12.1816 11.23C12.0749 11.1367 12.0049 11.0233 11.9716 10.89L11.7516 9.79L18.6616 0.589999H20.6816V9.68H22.6716Z" fill="white"/>
</svg>
