<svg width="22" height="16" viewBox="0 0 22 16" fill="none" xmlns="http://www.w3.org/2000/svg">
<path d="M11.05 7.8C11.05 9.06 10.9133 10.15 10.64 11.07C10.3733 11.99 10.0033 12.7533 9.53 13.36C9.05667 13.9667 8.5 14.4167 7.86 14.71C7.22 15.0033 6.53 15.15 5.79 15.15C5.05 15.15 4.36 15.0033 3.72 14.71C3.08 14.4167 2.52333 13.9667 2.05 13.36C1.58333 12.7533 1.21667 11.99 0.95 11.07C0.683333 10.15 0.55 9.06 0.55 7.8C0.55 6.54 0.683333 5.45 0.95 4.53C1.21667 3.60333 1.58333 2.84 2.05 2.24C2.52333 1.63333 3.08 1.18333 3.72 0.89C4.36 0.589999 5.05 0.439999 5.79 0.439999C6.53 0.439999 7.22 0.589999 7.86 0.89C8.5 1.18333 9.05667 1.63333 9.53 2.24C10.0033 2.84 10.3733 3.60333 10.64 4.53C10.9133 5.45 11.05 6.54 11.05 7.8ZM8.83 7.8C8.83 6.73333 8.74333 5.84667 8.57 5.14C8.40333 4.42667 8.18 3.85667 7.9 3.43C7.62 3.00333 7.29667 2.7 6.93 2.52C6.56333 2.34 6.18333 2.25 5.79 2.25C5.39 2.25 5.00667 2.34 4.64 2.52C4.28 2.7 3.96 3.00333 3.68 3.43C3.4 3.85667 3.17667 4.42667 3.01 5.14C2.84333 5.84667 2.76 6.73333 2.76 7.8C2.76 8.86667 2.84333 9.75667 3.01 10.47C3.17667 11.1767 3.4 11.7433 3.68 12.17C3.96 12.5967 4.28 12.9 4.64 13.08C5.00667 13.26 5.39 13.35 5.79 13.35C6.18333 13.35 6.56333 13.26 6.93 13.08C7.29667 12.9 7.62 12.5967 7.9 12.17C8.18 11.7433 8.40333 11.1767 8.57 10.47C8.74333 9.75667 8.83 8.86667 8.83 7.8ZM15.4516 5.92C15.7982 5.84667 16.1282 5.79333 16.4416 5.76C16.7616 5.72667 17.0682 5.71 17.3616 5.71C18.1149 5.71 18.7782 5.82333 19.3516 6.05C19.9316 6.27 20.4149 6.57667 20.8016 6.97C21.1949 7.36333 21.4882 7.82667 21.6816 8.36C21.8816 8.88667 21.9816 9.46 21.9816 10.08C21.9816 10.8467 21.8482 11.5433 21.5816 12.17C21.3149 12.7967 20.9449 13.3333 20.4716 13.78C19.9982 14.22 19.4382 14.56 18.7916 14.8C18.1516 15.04 17.4582 15.16 16.7116 15.16C16.2716 15.16 15.8516 15.1167 15.4516 15.03C15.0582 14.9433 14.6882 14.8267 14.3416 14.68C13.9949 14.5267 13.6749 14.3533 13.3816 14.16C13.0882 13.96 12.8249 13.7533 12.5916 13.54L13.2516 12.62C13.3916 12.42 13.5782 12.32 13.8116 12.32C13.9582 12.32 14.1182 12.3733 14.2916 12.48C14.4649 12.5867 14.6649 12.7033 14.8916 12.83C15.1249 12.95 15.3982 13.0633 15.7116 13.17C16.0249 13.2767 16.3982 13.33 16.8316 13.33C17.3049 13.33 17.7282 13.2533 18.1016 13.1C18.4749 12.9467 18.7882 12.7333 19.0416 12.46C19.3016 12.18 19.4982 11.8467 19.6316 11.46C19.7649 11.0733 19.8316 10.65 19.8316 10.19C19.8316 9.77 19.7682 9.39333 19.6416 9.06C19.5216 8.72667 19.3382 8.44333 19.0916 8.21C18.8516 7.97667 18.5482 7.8 18.1816 7.68C17.8149 7.55333 17.3916 7.49 16.9116 7.49C16.5582 7.49 16.1949 7.52 15.8216 7.58C15.4549 7.64 15.0816 7.73333 14.7016 7.86L13.3616 7.48L14.5416 0.599999H21.5116V1.53C21.5116 1.83667 21.4149 2.08667 21.2216 2.28C21.0282 2.47333 20.7049 2.57 20.2516 2.57H16.0316L15.4516 5.92Z" fill="white"/>
</svg>
