<svg width="23" height="16" viewBox="0 0 23 16" fill="none" xmlns="http://www.w3.org/2000/svg">
<path d="M11.05 7.8C11.05 9.06 10.9133 10.15 10.64 11.07C10.3733 11.99 10.0033 12.7533 9.53 13.36C9.05667 13.9667 8.5 14.4167 7.86 14.71C7.22 15.0033 6.53 15.15 5.79 15.15C5.05 15.15 4.36 15.0033 3.72 14.71C3.08 14.4167 2.52333 13.9667 2.05 13.36C1.58333 12.7533 1.21667 11.99 0.95 11.07C0.683333 10.15 0.55 9.06 0.55 7.8C0.55 6.54 0.683333 5.45 0.95 4.53C1.21667 3.60333 1.58333 2.84 2.05 2.24C2.52333 1.63333 3.08 1.18333 3.72 0.89C4.36 0.589999 5.05 0.439999 5.79 0.439999C6.53 0.439999 7.22 0.589999 7.86 0.89C8.5 1.18333 9.05667 1.63333 9.53 2.24C10.0033 2.84 10.3733 3.60333 10.64 4.53C10.9133 5.45 11.05 6.54 11.05 7.8ZM8.83 7.8C8.83 6.73333 8.74333 5.84667 8.57 5.14C8.40333 4.42667 8.18 3.85667 7.9 3.43C7.62 3.00333 7.29667 2.7 6.93 2.52C6.56333 2.34 6.18333 2.25 5.79 2.25C5.39 2.25 5.00667 2.34 4.64 2.52C4.28 2.7 3.96 3.00333 3.68 3.43C3.4 3.85667 3.17667 4.42667 3.01 5.14C2.84333 5.84667 2.76 6.73333 2.76 7.8C2.76 8.86667 2.84333 9.75667 3.01 10.47C3.17667 11.1767 3.4 11.7433 3.68 12.17C3.96 12.5967 4.28 12.9 4.64 13.08C5.00667 13.26 5.39 13.35 5.79 13.35C6.18333 13.35 6.56333 13.26 6.93 13.08C7.29667 12.9 7.62 12.5967 7.9 12.17C8.18 11.7433 8.40333 11.1767 8.57 10.47C8.74333 9.75667 8.83 8.86667 8.83 7.8ZM17.3816 13.38C17.8149 13.38 18.2116 13.31 18.5716 13.17C18.9316 13.0233 19.2382 12.8233 19.4916 12.57C19.7516 12.3167 19.9516 12.0167 20.0916 11.67C20.2316 11.3233 20.3016 10.9467 20.3016 10.54C20.3016 10.1 20.2316 9.70667 20.0916 9.36C19.9582 9.00667 19.7649 8.71 19.5116 8.47C19.2649 8.23 18.9649 8.04667 18.6116 7.92C18.2649 7.78667 17.8816 7.72 17.4616 7.72C17.0282 7.72 16.6349 7.79333 16.2816 7.94C15.9349 8.08667 15.6382 8.28667 15.3916 8.54C15.1449 8.79333 14.9549 9.09 14.8216 9.43C14.6882 9.77 14.6216 10.13 14.6216 10.51C14.6216 10.9367 14.6816 11.3267 14.8016 11.68C14.9216 12.0333 15.0982 12.3367 15.3316 12.59C15.5649 12.8367 15.8516 13.03 16.1916 13.17C16.5382 13.31 16.9349 13.38 17.3816 13.38ZM16.5916 5.9C16.4849 6.03333 16.3816 6.16 16.2816 6.28C16.1882 6.4 16.0949 6.52 16.0016 6.64C16.3082 6.46667 16.6449 6.33 17.0116 6.23C17.3782 6.13 17.7716 6.08 18.1916 6.08C18.7516 6.08 19.2882 6.17333 19.8016 6.36C20.3149 6.54 20.7649 6.81333 21.1516 7.18C21.5449 7.54 21.8582 7.99 22.0916 8.53C22.3249 9.06333 22.4416 9.68 22.4416 10.38C22.4416 11.0467 22.3182 11.67 22.0716 12.25C21.8316 12.83 21.4916 13.3367 21.0516 13.77C20.6116 14.1967 20.0816 14.5367 19.4616 14.79C18.8482 15.0367 18.1682 15.16 17.4216 15.16C16.6749 15.16 16.0016 15.04 15.4016 14.8C14.8016 14.56 14.2882 14.2233 13.8616 13.79C13.4416 13.35 13.1182 12.8233 12.8916 12.21C12.6649 11.5967 12.5516 10.9133 12.5516 10.16C12.5516 9.50667 12.6916 8.82333 12.9716 8.11C13.2516 7.39667 13.6849 6.64667 14.2716 5.86L17.8116 1.11C17.9182 0.969999 18.0716 0.849999 18.2716 0.749999C18.4782 0.649999 18.7082 0.599999 18.9616 0.599999H20.8616L16.5916 5.9Z" fill="white"/>
</svg>
