<svg width="23" height="16" viewBox="0 0 23 16" fill="none" xmlns="http://www.w3.org/2000/svg">
<path d="M11.05 7.8C11.05 9.06 10.9133 10.15 10.64 11.07C10.3733 11.99 10.0033 12.7533 9.53 13.36C9.05667 13.9667 8.5 14.4167 7.86 14.71C7.22 15.0033 6.53 15.15 5.79 15.15C5.05 15.15 4.36 15.0033 3.72 14.71C3.08 14.4167 2.52333 13.9667 2.05 13.36C1.58333 12.7533 1.21667 11.99 0.95 11.07C0.683333 10.15 0.55 9.06 0.55 7.8C0.55 6.54 0.683333 5.45 0.95 4.53C1.21667 3.60333 1.58333 2.84 2.05 2.24C2.52333 1.63333 3.08 1.18333 3.72 0.89C4.36 0.589999 5.05 0.439999 5.79 0.439999C6.53 0.439999 7.22 0.589999 7.86 0.89C8.5 1.18333 9.05667 1.63333 9.53 2.24C10.0033 2.84 10.3733 3.60333 10.64 4.53C10.9133 5.45 11.05 6.54 11.05 7.8ZM8.83 7.8C8.83 6.73333 8.74333 5.84667 8.57 5.14C8.40333 4.42667 8.18 3.85667 7.9 3.43C7.62 3.00333 7.29667 2.7 6.93 2.52C6.56333 2.34 6.18333 2.25 5.79 2.25C5.39 2.25 5.00667 2.34 4.64 2.52C4.28 2.7 3.96 3.00333 3.68 3.43C3.4 3.85667 3.17667 4.42667 3.01 5.14C2.84333 5.84667 2.76 6.73333 2.76 7.8C2.76 8.86667 2.84333 9.75667 3.01 10.47C3.17667 11.1767 3.4 11.7433 3.68 12.17C3.96 12.5967 4.28 12.9 4.64 13.08C5.00667 13.26 5.39 13.35 5.79 13.35C6.18333 13.35 6.56333 13.26 6.93 13.08C7.29667 12.9 7.62 12.5967 7.9 12.17C8.18 11.7433 8.40333 11.1767 8.57 10.47C8.74333 9.75667 8.83 8.86667 8.83 7.8ZM17.4016 13.46C17.8349 13.46 18.2216 13.4 18.5616 13.28C18.9016 13.1533 19.1849 12.98 19.4116 12.76C19.6449 12.5333 19.8216 12.2667 19.9416 11.96C20.0616 11.6533 20.1216 11.32 20.1216 10.96C20.1216 10.52 20.0516 10.14 19.9116 9.82C19.7782 9.5 19.5882 9.23667 19.3416 9.03C19.1016 8.81667 18.8149 8.66 18.4816 8.56C18.1482 8.45333 17.7882 8.4 17.4016 8.4C17.0149 8.4 16.6549 8.45333 16.3216 8.56C15.9882 8.66 15.6982 8.81667 15.4516 9.03C15.2116 9.23667 15.0216 9.5 14.8816 9.82C14.7482 10.14 14.6816 10.52 14.6816 10.96C14.6816 11.32 14.7416 11.6533 14.8616 11.96C14.9816 12.2667 15.1549 12.5333 15.3816 12.76C15.6149 12.98 15.9016 13.1533 16.2416 13.28C16.5816 13.4 16.9682 13.46 17.4016 13.46ZM17.4016 2.09C17.0082 2.09 16.6616 2.15 16.3616 2.27C16.0682 2.39 15.8249 2.55 15.6316 2.75C15.4382 2.95 15.2916 3.18667 15.1916 3.46C15.0982 3.72667 15.0516 4.01 15.0516 4.31C15.0516 4.61 15.0916 4.90333 15.1716 5.19C15.2582 5.47667 15.3916 5.73333 15.5716 5.96C15.7582 6.18 16.0016 6.35667 16.3016 6.49C16.6016 6.62333 16.9682 6.69 17.4016 6.69C17.8349 6.69 18.2016 6.62333 18.5016 6.49C18.8016 6.35667 19.0416 6.18 19.2216 5.96C19.4082 5.73333 19.5416 5.47667 19.6216 5.19C19.7082 4.90333 19.7516 4.61 19.7516 4.31C19.7516 4.01 19.7016 3.72667 19.6016 3.46C19.5082 3.18667 19.3616 2.95 19.1616 2.75C18.9682 2.55 18.7249 2.39 18.4316 2.27C18.1382 2.15 17.7949 2.09 17.4016 2.09ZM19.6716 7.49C20.5582 7.76333 21.2216 8.19667 21.6616 8.79C22.1082 9.38333 22.3316 10.12 22.3316 11C22.3316 11.6333 22.2116 12.2067 21.9716 12.72C21.7316 13.2333 21.3949 13.67 20.9616 14.03C20.5282 14.39 20.0082 14.67 19.4016 14.87C18.8016 15.0633 18.1349 15.16 17.4016 15.16C16.6682 15.16 15.9982 15.0633 15.3916 14.87C14.7916 14.67 14.2749 14.39 13.8416 14.03C13.4082 13.67 13.0716 13.2333 12.8316 12.72C12.5916 12.2067 12.4716 11.6333 12.4716 11C12.4716 10.12 12.6916 9.38333 13.1316 8.79C13.5782 8.19667 14.2449 7.76333 15.1316 7.49C14.4116 7.20333 13.8682 6.78667 13.5016 6.24C13.1416 5.69333 12.9616 5.03667 12.9616 4.27C12.9616 3.73 13.0682 3.22667 13.2816 2.76C13.4949 2.29333 13.7949 1.89 14.1816 1.55C14.5749 1.20333 15.0449 0.933332 15.5916 0.739999C16.1382 0.539999 16.7416 0.439999 17.4016 0.439999C18.0616 0.439999 18.6616 0.539999 19.2016 0.739999C19.7482 0.933332 20.2149 1.20333 20.6016 1.55C20.9949 1.89 21.2982 2.29333 21.5116 2.76C21.7316 3.22667 21.8416 3.73 21.8416 4.27C21.8416 5.03667 21.6582 5.69333 21.2916 6.24C20.9316 6.78667 20.3916 7.20333 19.6716 7.49Z" fill="white"/>
</svg>
